<svg width="24" height="24" fill="none" xmlns="http://www.w3.org/2000/svg"><path fill-rule="evenodd" clip-rule="evenodd" d="M19.982 4.005A8.113 8.113 0 0019.566 4H19.5a1 1 0 110-2h.154c.306-.001.682-.003 1.014.115a2 2 0 011.217 1.217c.118.332.116.708.115 1.014v15.18c0 .21 0 .415-.012.59a2.03 2.03 0 01-.14.65 2 2 0 01-1.083 1.082 2.03 2.03 0 01-.65.14c-.174.012-.379.012-.589.012H19.5a1 1 0 010-2 8.093 8.093 0 00.492-.008v-.013c.008-.098.008-.232.008-.479V4.434c0-.214 0-.33-.005-.416l-.001-.012h-.012zM6.5 3a1 1 0 011-1h1a1 1 0 010 2h-1a1 1 0 01-1-1zm6 1h-1a1 1 0 010-2h1a1 1 0 010 2zm2-1a1 1 0 011-1h1a1 1 0 110 2h-1a1 1 0 01-1-1zM4.474 2H4.5a1 1 0 010 2 8.132 8.132 0 00-.492.008v.013A8.144 8.144 0 004 4.5v14.9a8.184 8.184 0 00.011.588l.014.002c.116.01.278.01.575.01a1 1 0 110 2h-.032c-.252 0-.498 0-.706-.017a2.023 2.023 0 01-.77-.2 2 2 0 01-.874-.875 2.021 2.021 0 01-.201-.77C2 19.93 2 19.684 2 19.432V4.474c0-.21 0-.415.012-.59.013-.19.043-.415.14-.65a2 2 0 011.083-1.082c.234-.097.46-.127.65-.14C4.059 2 4.263 2 4.474 2zM6.5 21a1 1 0 011-1h1a1 1 0 110 2h-1a1 1 0 01-1-1zm4 0a1 1 0 011-1h1a1 1 0 110 2h-1a1 1 0 01-1-1zm4 0a1 1 0 011-1h1a1 1 0 110 2h-1a1 1 0 01-1-1z" fill="#24242E"/><path d="M12 6v8m0 3h0" stroke="#000" stroke-width="2" stroke-linecap="round"/></svg>