<svg width="24" height="24" viewBox="0 0 24 24" fill="none" xmlns="http://www.w3.org/2000/svg">
<path fill-rule="evenodd" clip-rule="evenodd" d="M19.9817 4.00544C19.8969 4.00042 19.7801 4.00001 19.5664 4.00001H19.5C18.9477 4.00001 18.5 3.55229 18.5 3.00001C18.5 2.44772 18.9477 2.00001 19.5 2.00001L19.5664 2.00001C19.5949 2.00001 19.6242 1.9999 19.6542 1.99978C19.9596 1.99857 20.3356 1.99709 20.668 2.11486C21.2365 2.31631 21.6837 2.76353 21.8851 3.33202C22.0029 3.66439 22.0014 4.04045 22.0002 4.34587C22.0001 4.37583 22 4.40511 22 4.4336V19.5V19.5265C22 19.7365 22 19.9411 21.9882 20.1151C21.9752 20.3055 21.9447 20.5312 21.8478 20.7652C21.6448 21.2554 21.2553 21.6448 20.7651 21.8478C20.5311 21.9447 20.3054 21.9751 20.1151 21.9881C19.941 22 19.7364 21.9999 19.5264 21.9999L19.4999 21.9999C18.9477 21.9999 18.5 21.5521 18.5 20.9998C18.5 20.4475 18.9478 19.9999 19.5001 19.9999C19.7467 19.9999 19.8816 19.9994 19.9791 19.9927C19.9836 19.9924 19.9879 19.9921 19.9919 19.9918C19.9922 19.9878 19.9925 19.9836 19.9928 19.979C19.9995 19.8815 20 19.7466 20 19.5V4.4336C20 4.21993 19.9996 4.10309 19.9946 4.01833C19.9943 4.01401 19.9941 4.00997 19.9938 4.00622C19.99 4.00596 19.986 4.0057 19.9817 4.00544ZM6.50001 2.99997C6.50001 2.44769 6.94772 1.99997 7.50001 1.99997H8.50001C9.05229 1.99997 9.50001 2.44769 9.50001 2.99997C9.50001 3.55226 9.05229 3.99997 8.50001 3.99997H7.50001C6.94772 3.99997 6.50001 3.55226 6.50001 2.99997ZM12.5 3.99997L11.5 4.00001C10.9478 4.00003 10.5 3.55234 10.5 3.00005C10.5 2.44777 10.9477 2.00003 11.5 2.00001L12.5 1.99997C13.0522 1.99995 13.5 2.44765 13.5 2.99993C13.5 3.55222 13.0523 3.99995 12.5 3.99997ZM14.5 2.99997C14.5 2.44769 14.9477 1.99997 15.5 1.99997H16.5C17.0523 1.99997 17.5 2.44769 17.5 2.99997C17.5 3.55226 17.0523 3.99997 16.5 3.99997H15.5C14.9477 3.99997 14.5 3.55226 14.5 2.99997ZM4.47353 2.00001C4.48235 2.00001 4.49117 2.00001 4.50001 2.00001C5.05229 2.00001 5.50001 2.44773 5.50001 3.00001C5.50001 3.5523 5.05229 4.00001 4.50001 4.00001C4.25335 4.00001 4.11844 4.00055 4.02092 4.00721C4.01638 4.00752 4.01213 4.00783 4.00814 4.00814C4.00782 4.01213 4.00751 4.01639 4.0072 4.02093C4.00055 4.11845 4.00001 4.25336 4.00001 4.50001V19.4C4.00001 19.6965 4.00078 19.8587 4.01031 19.9753C4.01068 19.9799 4.01107 19.9843 4.01145 19.9885C4.0156 19.9889 4.02 19.9893 4.02464 19.9896C4.14121 19.9992 4.30345 19.9999 4.59994 19.9999C5.15223 19.9999 5.59997 20.4475 5.60001 20.9998C5.60004 21.5521 5.15235 21.9999 4.60007 21.9999L4.56821 21.9999C4.31584 22 4.07007 22 3.86193 21.983C3.63336 21.9643 3.36366 21.9203 3.09225 21.7821C2.71579 21.5903 2.40972 21.2843 2.21794 20.9078C2.07967 20.6364 2.03562 20.3667 2.01695 20.1381C1.99994 19.93 1.99997 19.6842 2 19.4319L2.00001 19.4V4.50001C2.00001 4.49118 2 4.48235 2 4.47354C1.99998 4.26349 1.99996 4.05887 2.01184 3.88478C2.02483 3.69441 2.0553 3.46869 2.15225 3.23464C2.35523 2.74459 2.74458 2.35524 3.23464 2.15225C3.46868 2.05531 3.69441 2.02483 3.88478 2.01185C4.05886 1.99997 4.26349 1.99999 4.47353 2.00001ZM6.50001 20.9999C6.50001 20.4476 6.94772 19.9999 7.50001 19.9999H8.50001C9.05229 19.9999 9.50001 20.4476 9.50001 20.9999C9.50001 21.5522 9.05229 21.9999 8.50001 21.9999H7.50001C6.94772 21.9999 6.50001 21.5522 6.50001 20.9999ZM10.5 21C10.5 20.4477 10.9477 20 11.5 20H12.5C13.0523 20 13.5 20.4477 13.5 21C13.5 21.5523 13.0523 22 12.5 22H11.5C10.9477 22 10.5 21.5523 10.5 21ZM14.5 21C14.5 20.4477 14.9477 20 15.5 20H16.5C17.0523 20 17.5 20.4477 17.5 21C17.5 21.5523 17.0523 22 16.5 22H15.5C14.9477 22 14.5 21.5523 14.5 21Z" fill="#24242E"/>
<path d="M12 6V14" stroke="black" stroke-width="2" stroke-linecap="round"/>
<path d="M12 17H11.9999" stroke="black" stroke-width="2" stroke-linecap="round"/>
</svg>
